<?xml version="1.0" standalone="no"?><!DOCTYPE svg PUBLIC "-//W3C//DTD SVG 1.1//EN" "http://www.w3.org/Graphics/SVG/1.1/DTD/svg11.dtd"><svg t="1702385137593" class="icon" viewBox="0 0 1024 1024" version="1.1" xmlns="http://www.w3.org/2000/svg" p-id="31543" xmlns:xlink="http://www.w3.org/1999/xlink" width="18" height="18"><path d="M923.60103253 743.71613683c-6.09779308-74.6316848-45.20320517-157.87981634-61.50817362-199.50388211l-41.75662648-107.50674313c-1.3256072-44.80552302 11.93046471-147.54008027-57.53135206-276.38909913-69.59437748-128.84901888-209.04825389-140.51436215-234.89759409-141.83996935-25.71677949-1.06048575-187.04317453-2.38609294-266.31448449 137.73058706-79.13874925 140.24924071-57.92903421 280.63104215-57.92903422 280.63104215l-44.14271943 108.43466815s-20.67947216 49.44514819-38.44260851 109.49515391c-18.02825779 60.18256643-35.52627269 154.83091981-18.02825778 173.91966335 18.02825779 19.35386498 82.45276723-88.02031742 88.41799958-97.69724992 0 0 4.63962516 51.16843754 16.70265059 77.94570277 9.94205392 21.34227575 33.40530119 74.89680624 80.8620386 116.78599345-22.80044368 7.42340027-77.68058134 27.30750811-85.63422449 47.58929814-10.07461465 26.11446164 7.82108242 29.03079746 38.84029067 30.75408681 30.75408681 1.72328935 178.95697067 5.70011091 249.87695535-4.10938229 0.66280359-0.26512144 1.59072863-0.26512144 2.25353222-0.39768216 7.0257181 0.26512144 13.65375406 0.39768215 19.48642569 0.39768216 3.97682157 0 8.48388603 0 13.65375407-0.26512144 0.66280359 0 0.92792503 0.26512144 1.59072862 0.26512144 70.91998467 10.07461465 219.12286853 6.09779308 249.87695534 4.10938229 30.75408681-1.72328935 48.91490531-4.77218589 38.84029067-30.75408681-8.08620386-20.81203289-64.55707017-40.82870146-86.69471023-47.85441958 7.15827883-6.23035379 13.9188755-12.85838974 20.14922928-20.01666856 79.93411357-88.02031742 73.30607762-143.29813726 76.6200956-175.24527054 0 0 67.34084526 97.16700704 81.78996362 100.3484643 15.24448269 3.18145726 19.75154713-12.19558615 13.9188755-86.82727096z m0 0" fill="#FFFFFF" p-id="31544"></path><path d="M329.9941328 953.82487647c-14.44911838-8.08620386-28.10287243-17.63057563-40.43101931-28.76567602-22.80044368 7.55596098-77.68058134 27.30750811-85.63422448 47.58929812-10.07461465 26.11446164 7.82108242 29.03079746 38.84029067 30.75408681 30.75408681 1.72328935 178.95697067 5.70011091 249.87695534-4.10938229 0.66280359-0.26512144 1.59072863-0.26512144 2.25353223-0.39768215-57.79647349-1.06048575-114.53246123-16.57008987-164.90553445-45.07064447z m401.39385716-28.76567602c-70.25718107 62.43609866-156.81933059 72.90839547-203.48070368 74.36656336 0.66280359 0 0.92792503 0.26512144 1.59072863 0.26512144 70.91998467 10.07461465 219.12286853 6.09779308 249.87695534 4.10938229 30.75408681-1.72328935 48.91490531-4.77218589 38.84029067-30.75408681-8.21876458-21.07715433-64.68963088-40.96126218-86.82727096-47.98698028z m0 0" fill="#E5A627" p-id="31545"></path><path d="M861.96029819 543.94713328l-41.75662649-107.63930384s-286.46371379 90.67153181-616.4073434 0l-44.14271944 108.43466816s60.58024859 21.47483648 157.87981635 36.85187988v145.81679091s77.28289918 10.60485751 135.47705482 3.31401798V595.77837442c118.11160064 6.49547523 261.4097379-2.91633582 408.94981816-51.83124114z m0 0" fill="#CE2D22" p-id="31546"></path><path d="M762.80488037 160.18385174c-69.32925605-128.58389744-208.78313245-140.24924071-234.63247266-141.5748479-25.71677949-1.3256072-187.04317453-2.65121438-266.31448449 137.59802633-79.27130997 140.38180144-57.92903421 280.63104215-57.92903421 280.63104215 331.26923681 92.39482115 616.40734341 0 616.40734342 0-1.45816791-45.07064446 12.06302544-148.07032315-57.53135206-276.65422058zM430.34259709 299.50516741c-30.09128322 0-54.21733408-34.8634691-54.21733407-77.94570277 0-42.94967296 24.3911723-77.94570277 54.21733407-77.94570277 30.09128322 0 54.21733408 34.8634691 54.21733408 77.94570277s-24.12605086 77.94570277-54.21733408 77.94570277z m161.85663792 0c-30.09128322 0-54.21733408-34.8634691-54.21733408-77.94570277 0-42.94967296 24.3911723-77.94570277 54.21733408-77.94570277 30.09128322 0 54.21733408 34.8634691 54.21733407 77.94570277s-24.3911723 77.94570277-54.21733407 77.94570277z m0 0" fill="#070001" p-id="31547"></path><path d="M422.91919682 227.92237915c0 17.10033275 10.60485751 31.15176897 23.46324727 31.15176898 12.99095045 0 23.46324726-13.78631477 23.46324727-31.15176898s-10.60485751-31.15176897-23.46324727-31.15176896c-12.85838974 0.13256073-23.46324726 14.05143621-23.46324727 31.15176896zM592.19923501 208.43595346c15.64216485 0 37.11700133 8.08620386 32.47737616 20.81203289-3.71170014 10.07461465-22.13764007-3.31401797-28.76567603-4.37450374-8.3513253-1.06048575-20.67947216-1.98841078-30.75408682 10.33973609-6.76059667 8.08620386-17.36545419 7.15827883-13.65375405-3.97682157 4.24194301-12.46070759 20.01666857-22.80044368 40.69614074-22.80044367z m0 0" fill="#070001" p-id="31548"></path><path d="M323.49865757 364.99016261c0 13.12351118 97.82981063 62.17097723 187.44085668 61.50817362 89.61104606-0.66280359 189.42926747-49.18002675 189.42926746-63.36402368 0-14.05143621-71.84790971-39.10541211-191.28511753-39.1054121-119.30464711-0.13256073-185.58500661 21.60739721-185.58500661 40.96126216z m0 0" fill="#E5A627" p-id="31549"></path><path d="M923.60103253 743.71613683c-6.09779308-74.6316848-45.20320517-157.87981634-61.50817362-199.50388211-38.57516923 12.72582902-77.28289918 22.80044368-114.79758266 30.75408681 3.31401797 16.70265059 7.55596098 53.15684832 5.96523236 122.75122581-2.65121438 103.79504299-36.45419773 188.36878171-119.70232928 237.28368703-83.24813154 48.91490531-229.46260461 38.17748707-293.22431044-41.7566265-60.18256643-75.02936695-79.66899213-131.10255109-65.21987376-318.80852921-72.37815259-14.31655765-115.46038626-29.42847963-115.46038627-29.42847962s-20.67947216 49.44514819-38.44260851 109.4951539c-18.02825779 60.18256643-35.52627269 154.83091981-18.02825779 173.91966335 18.02825779 19.35386498 82.58532795-88.02031742 88.41799959-97.69724992 0 0 4.63962516 51.16843754 16.7026506 77.94570278 12.06302544 26.77726525 45.86600878 103.79504299 121.42561861 145.55166947C405.15606048 995.84662439 469.31544848 999.82344596 514.25353221 999.82344596c44.93808374 0 157.48213419-6.62803595 237.28368704-94.64835337s73.30607762-143.29813726 76.6200956-175.24527053c0 0 67.34084526 97.16700704 81.78996362 100.34846429 14.97936125 3.44657869 19.4864257-11.93046471 13.65375406-86.56214952z m0 0" fill="#070001" p-id="31550"></path></svg>