<?xml version="1.0" standalone="no"?><!DOCTYPE svg PUBLIC "-//W3C//DTD SVG 1.1//EN" "http://www.w3.org/Graphics/SVG/1.1/DTD/svg11.dtd"><svg t="1702385125443" class="icon" viewBox="0 0 1280 1024" version="1.1" xmlns="http://www.w3.org/2000/svg" p-id="30462" xmlns:xlink="http://www.w3.org/1999/xlink" width="22.5" height="18"><path d="M866.56 309.76c14.72 0 29.184 1.088 43.584 2.688C871.04 133.184 675.84 0 453.12 0 204.032 0 0 166.72 0 378.368c0 122.24 67.84 222.592 181.312 300.416L136 812.608l158.336-77.952c56.704 11.008 102.144 22.272 158.72 22.272 14.208 0 28.288-0.64 42.304-1.728a325.824 325.824 0 0 1-14.016-93.248c0-194.368 169.984-352.128 385.216-352.128zM622.912 189.248c34.112 0 56.704 22.08 56.704 55.488s-22.592 55.68-56.704 55.68c-33.92 0-67.968-22.272-67.968-55.68s34.048-55.488 67.968-55.488zM305.92 300.352c-33.92 0-68.224-22.272-68.224-55.68S272 189.184 305.92 189.184s56.576 22.08 56.576 55.488-22.592 55.68-56.576 55.68zM1280 656.64c0-177.92-181.248-322.944-384.832-322.944-215.552 0-385.28 145.024-385.28 322.944 0 178.176 169.728 322.88 385.28 322.88 45.12 0 90.688-11.2 136-22.4l124.224 66.88-34.048-111.168C1212.16 845.76 1280 756.928 1280 656.64z m-509.696-55.68c-22.592 0-45.376-22.08-45.376-44.544 0-22.144 22.784-44.48 45.376-44.48 34.24 0 56.704 22.336 56.704 44.48 0 22.464-22.464 44.544-56.704 44.544z m249.152 0c-22.4 0-44.992-22.08-44.992-44.544 0-22.144 22.592-44.48 44.992-44.48 33.92 0 56.704 22.336 56.704 44.48 0 22.464-22.72 44.544-56.704 44.544z" fill="#139b1c" p-id="30463"></path></svg>