<?xml version="1.0" standalone="no"?><!DOCTYPE svg PUBLIC "-//W3C//DTD SVG 1.1//EN" "http://www.w3.org/Graphics/SVG/1.1/DTD/svg11.dtd"><svg t="1702989897815" class="icon" viewBox="0 0 1024 1024" version="1.1" xmlns="http://www.w3.org/2000/svg" p-id="4222" xmlns:xlink="http://www.w3.org/1999/xlink" width="18" height="18"><path d="M810.666667 85.333333H213.333333a128.128 128.128 0 0 0-128 128v597.333334a128.128 128.128 0 0 0 128 128h597.333334a128.128 128.128 0 0 0 128-128V213.333333a128.128 128.128 0 0 0-128-128z m-85.333334 256c-70.826667 0-121.856 92.885333-175.957333 191.232C485.717333 648.32 419.882667 768 298.666667 768a42.666667 42.666667 0 0 1 0-85.333333c70.826667 0 121.856-92.885333 175.957333-191.232C538.282667 375.68 604.117333 256 725.333333 256a42.666667 42.666667 0 0 1 0 85.333333z" fill="#00DDB3" p-id="4223"></path></svg>