<?xml version="1.0" standalone="no"?><!DOCTYPE svg PUBLIC "-//W3C//DTD SVG 1.1//EN" "http://www.w3.org/Graphics/SVG/1.1/DTD/svg11.dtd"><svg t="1702912506779" class="icon" viewBox="0 0 1024 1024" version="1.1" xmlns="http://www.w3.org/2000/svg" p-id="14266" xmlns:xlink="http://www.w3.org/1999/xlink" width="18" height="18"><path d="M42.336 589.344c76.32-112.832 243.424-171.808 498.688-164.992l60.832 1.664c138.88 3.808 170.976 7.104 242.304 9.856l24.032 0.96c31.84 1.344 55.36 2.56 70.72 3.68l4.352 0.32c9.344 0.736 15.744 1.44 21.344 2.56 4.8 0.96 9.12 2.144 14.592 4.544 8.192 3.52 15.68 8.192 23.36 16.928 18.176 20.512 22.784 51.584 7.04 77.632-8.32 13.76-17.92 20.768-28.896 25.824-4.096 1.92-7.712 3.136-11.36 4.064a78.208 78.208 0 0 1-9.664 1.92 65.408 65.408 0 0 1-28.992-2.56l-0.704-0.224-2.912-0.192a2643.84 2643.84 0 0 0-62.976-3.2l-17.728-0.736-20.192-0.768c-80-3.008-125.856-6.624-283.456-10.848l-5.184-0.128c-116.48-3.104-208.256 8.64-276.032 32.576-54.464 19.2-90.368 45.088-110.4 74.688a106.624 106.624 0 0 0-18.272 73.664c2.56 21.6 11.584 41.184 22.56 52.672l0.64 0.64a65.664 65.664 0 1 1-93.216 92.48C30.4 849.76 8.48 802.656 2.432 752.256a237.824 237.824 0 0 1 39.904-162.88z" fill="#007986" p-id="14267"></path><path d="M444.544 224.64c77.12 104.096 115.84 224.896 115.84 360.352 0 167.2-71.68 288.384-188.16 344.512-101.12 48.704-223.648 38.432-288.96-27.424a65.664 65.664 0 0 1 92.48-93.248l0.736 0.768c8.896 8.96 27.424 16.512 51.264 18.496 28.224 2.368 59.296-3.328 87.52-16.928 31.488-15.168 58.176-39.36 77.696-72.384 23.168-39.232 36.064-90.304 36.064-153.792 0-106.624-29.312-199.2-88.192-279.744l-1.792-2.464a65.664 65.664 0 0 1 105.504-78.144zM285.632 64a66.752 66.752 0 1 1 0 133.504 66.752 66.752 0 0 1 0-133.504z" fill="#00D1C1" p-id="14268"></path></svg>