<?xml version="1.0" standalone="no"?><!DOCTYPE svg PUBLIC "-//W3C//DTD SVG 1.1//EN" "http://www.w3.org/Graphics/SVG/1.1/DTD/svg11.dtd"><svg t="1702992074512" class="icon" viewBox="0 0 1024 1024" version="1.1" xmlns="http://www.w3.org/2000/svg" p-id="17747" data-spm-anchor-id="a313x.search_index.0.i6.3e2c3a81rscvSq" xmlns:xlink="http://www.w3.org/1999/xlink" width="18" height="18"><path d="M0 1024V0h1024v1024zM699.296 288.416l-9.824 1.28-9.376 1.696-8.96 2.56-17.056 5.984-8.096 3.84-7.68 4.256-7.264 4.704-7.264 5.12-6.816 5.536-6.4 5.984-5.984 6.4-5.536 6.816-5.536 7.264-4.704 7.264-4.704 8.096-4.256 8.096-3.84 8.96-3.424-9.376-4.256-8.96-4.256-8.544-5.12-8.096-5.536-7.264-5.984-6.816-6.4-6.4-6.4-5.984-7.264-5.536-7.264-4.704L512 305.888l-7.68-3.84-8.544-3.424-8.544-2.976-8.544-2.56-8.96-2.144-9.376-1.696-18.784-1.696h-18.336l-8.96 0.864-8.544 0.864-8.544 1.28-8.096 2.144-7.68 2.144-7.68 2.56-7.68 2.976-6.816 3.424-7.264 3.424-12.8 8.544-5.984 4.704-5.984 5.12-5.536 5.536-5.12 5.536-5.12 5.984-4.704 6.4-4.256 6.816-3.84 6.816V296.544h-185.6v94.72h58.464v250.016H113.024v96.416h270.08V641.28h-84.48v-162.56l0.416-8.96 1.28-8.544 1.28-8.096 1.696-7.68 2.144-7.68 2.56-6.816 2.976-6.816 3.424-5.984 3.84-5.984 4.704-5.12 4.704-4.704 5.12-4.256 5.984-3.84 6.4-3.424 6.4-2.56 7.264-2.144 8.096-1.696 8.096-0.864 8.96-0.416h7.264l6.816 0.864 6.816 1.28 5.984 1.696 5.984 2.144 5.536 2.56 5.12 2.976 4.704 3.84 4.256 4.256 4.256 4.704 3.424 5.12 3.424 5.984 5.12 13.664 2.144 8.096 1.696 8.096 1.28 8.96 1.28 9.824 0.416 10.656v259.84h183.456V641.28h-58.464v-153.6l0.864-17.92 0.864-8.544 1.696-8.096 1.696-7.68 2.144-7.68 2.56-6.816 2.976-6.816 3.424-5.984 3.84-5.984 4.256-5.12 5.12-4.704 5.12-4.256 5.984-3.84 5.984-3.424 6.816-2.56 7.264-2.144 8.096-1.696 8.096-0.864 8.96-0.416h7.264l6.816 0.864 6.816 1.28 5.984 1.696 5.984 2.144 5.536 2.56 5.12 2.976 4.704 3.84 4.256 4.256 3.84 4.704 3.84 5.12 3.424 5.984 5.12 13.664 2.144 8.096 1.696 8.096 1.28 8.96 1.28 9.824 0.416 10.656v259.84h183.456V641.28h-58.464v-201.376l-0.416-15.36-1.696-14.08-2.56-13.664-3.424-12.8-4.256-11.936-5.12-11.104-5.984-10.24-6.816-9.824-7.68-8.544-7.68-8.096-8.96-6.816-8.96-6.4-9.824-5.536-10.24-5.12-10.656-3.84-10.656-3.424-11.52-2.56-11.104-1.696-11.936-1.28h-22.176z" p-id="17748" data-spm-anchor-id="a313x.search_index.0.i5.3e2c3a81rscvSq" class="" fill="#245892"></path></svg>