<?xml version="1.0" standalone="no"?><!DOCTYPE svg PUBLIC "-//W3C//DTD SVG 1.1//EN" "http://www.w3.org/Graphics/SVG/1.1/DTD/svg11.dtd"><svg t="1702911930560" class="icon" viewBox="0 0 1024 1024" version="1.1" xmlns="http://www.w3.org/2000/svg" p-id="9606" xmlns:xlink="http://www.w3.org/1999/xlink" width="18" height="18" fill="#0271F0"><path d="M271.061333 0h481.877334A271.061333 271.061333 0 0 1 1024 271.061333v481.877334A271.061333 271.061333 0 0 1 752.938667 1024H271.061333A271.061333 271.061333 0 0 1 0 752.938667V271.061333A271.061333 271.061333 0 0 1 271.061333 0z m330.88 294.954667h-39.808v285.952a122.88 122.88 0 0 1-15.445333 61.866666c-10.24 18.090667-25.429333 32.853333-43.733333 42.666667-18.901333 10.410667-40.96 15.573333-66.261334 15.573333-25.258667 0-47.274667-5.162667-66.133333-15.530666a111.061333 111.061333 0 0 1-43.690667-42.666667 122.24 122.24 0 0 1-15.573333-61.866667V294.912h-39.808v288.725333a151.808 151.808 0 0 0 20.864 79.445334c13.952 23.338667 34.048 42.410667 58.112 55.125333 24.832 13.482667 53.589333 20.224 86.229333 20.224 32.810667 0 61.610667-6.698667 86.357334-20.096a148.181333 148.181333 0 0 0 58.026666-55.168c14.08-24.106667 21.333333-51.626667 20.906667-79.530667V294.954667z m155.648 436.053333V294.997333h-39.808v436.053334h39.808z" p-id="9607"></path></svg>