<?xml version="1.0" encoding="UTF-8"?>
<svg
  xmlns="http://www.w3.org/2000/svg"
  viewBox="0 0 1024 1024"
  version="1.1"
  p-id="20078"
  width="44"
  height="44"
>
  <path
    d="M0 0m256 0l512 0q256 0 256 256l0 512q0 256-256 256l-512 0q-256 0-256-256l0-512q0-256 256-256Z"
    fill=" #000000"
    p-id="20079"
  />
  <path
    d="M843.776 494.762667a177.621333 177.621333 0 0 1 11.434667 109.397333c-3.882667 18.261333-10.666667 35.797333-20.053334 51.925333a175.530667 175.530667 0 0 1-117.12 85.034667 176.213333 176.213333 0 0 1-25.258666 49.664 175.445333 175.445333 0 0 1-39.296 39.338667 177.066667 177.066667 0 0 1-104.618667 33.877333c-12.416 0.085333-24.874667-1.28-37.077333-3.754667a178.048 178.048 0 0 1-67.541334-30.208 174.506667 174.506667 0 0 1-27.434666-25.088 177.664 177.664 0 0 1-109.568-11.434666 176.213333 176.213333 0 0 1-46.634667-30.378667 179.626667 179.626667 0 0 1-50.261333-77.354667 175.786667 175.786667 0 0 1 0.213333-109.866666 178.090667 178.090667 0 0 1-21.76-208A176.256 176.256 0 0 1 238.165333 312.746667a173.866667 173.866667 0 0 1 67.797334-29.866667 177.066667 177.066667 0 0 1 169.173333-122.88 174.933333 174.933333 0 0 1 104.661333 33.877333c10.069333 7.424 19.285333 15.786667 27.52 25.130667a178.090667 178.090667 0 0 1 156.032 41.813333c13.866667 12.458667 25.685333 27.050667 34.986667 43.264a176.810667 176.810667 0 0 1 23.04 70.357334 176.042667 176.042667 0 0 1-7.978667 73.642666c12.544 13.866667 22.741333 29.568 30.378667 46.677334z m-244.48 313.173333a131.584 131.584 0 0 0 71.424-71.424c6.570667-16 10.026667-33.194667 10.026667-50.517333v-163.584a7.338667 7.338667 0 0 1-0.128-0.512 1.92 1.92 0 0 0-0.213334-0.426667 1.365333 1.365333 0 0 0-0.384-0.384 1.237333 1.237333 0 0 0-0.426666-0.298667l-59.221334-34.133333v197.589333a23.04 23.04 0 0 1-11.52 19.968l-140.202666 80.896c-1.152 0.768-3.157333 1.792-4.181334 2.346667 5.802667 4.949333 12.117333 9.258667 18.730667 13.098667 6.656 3.797333 13.568 7.04 20.736 9.685333a132.309333 132.309333 0 0 0 95.36-2.261333z m-333.866667-111.061333a131.797333 131.797333 0 0 0 180.181334 48.256l141.738666-81.792 0.384-0.341334a0.896 0.896 0 0 0 0.213334-0.426666 1.792 1.792 0 0 0 0.213333-0.469334v-68.949333l-171.093333 98.986667a25.941333 25.941333 0 0 1-5.504 2.304 23.765333 23.765333 0 0 1-17.493334-2.346667L253.866667 611.114667a146.986667 146.986667 0 0 1-4.138667-2.517334 132.48 132.48 0 0 0 0.085333 45.653334 132.693333 132.693333 0 0 0 15.616 42.752v-0.128z m-36.821333-305.92a132.693333 132.693333 0 0 0-13.141333 100.138666 131.84 131.84 0 0 0 61.44 80.042667l141.653333 81.877333a7.082667 7.082667 0 0 0 0.512 0.128h0.512a0.896 0.896 0 0 0 0.512-0.128 1.92 1.92 0 0 0 0.426667-0.213333l59.434666-34.346667-171.093333-98.730666a23.594667 23.594667 0 0 1-10.709333-13.994667 20.053333 20.053333 0 0 1-0.725334-5.973333V333.141333a133.589333 133.589333 0 0 0-20.778666 9.685334 134.826667 134.826667 0 0 0-47.914667 48.128h-0.128z m486.613333 113.28a23.381333 23.381333 0 0 1 8.533334 8.405333 26.368 26.368 0 0 1 2.261333 5.589333c0.426667 2.005333 0.725333 3.968 0.682667 6.016v166.613334a131.413333 131.413333 0 0 0 59.264-43.818667 132.138667 132.138667 0 0 0 12.117333-141.013333 131.328 131.328 0 0 0-50.986667-53.162667l-141.653333-81.877333a7.466667 7.466667 0 0 0-0.554667-0.128h-0.512a6.656 6.656 0 0 1-0.512 0.128 1.792 1.792 0 0 0-0.426666 0.213333l-59.136 34.218667 171.093333 98.816h-0.170667z m59.050667-88.746667h-0.042667 0.085334z m-0.042667-0.128a131.925333 131.925333 0 0 0-195.84-136.618667l-141.738666 81.834667a1.322667 1.322667 0 0 0-0.341334 0.384l-0.298666 0.426667a6.954667 6.954667 0 0 0-0.213334 1.024v68.394666l171.093334-98.858666a26.368 26.368 0 0 1 5.546666-2.346667 23.552 23.552 0 0 1 17.493334 2.346667l140.16 81.024 4.138666 2.389333zM403.498667 339.669333a23.637333 23.637333 0 0 1 6.784-16.298666 20.906667 20.906667 0 0 1 4.736-3.584l140.202666-80.938667c1.322667-0.768 3.157333-1.834667 4.181334-2.346667-19.2-16.042667-42.666667-26.325333-67.541334-29.44A131.882667 131.882667 0 0 0 343.168 337.92v163.584a6.869333 6.869333 0 0 0 0.128 0.512 1.877333 1.877333 0 0 0 0.213333 0.426667 3.114667 3.114667 0 0 0 0.341334 0.426666 1.706667 1.706667 0 0 0 0.426666 0.341334l59.221334 34.133333V339.712z m32.128 216.192l76.245333 44.032 76.245333-44.032v-87.936l-76.16-44.032-76.245333 44.032-0.085333 87.936z"
    fill="#FFFFFF"
    p-id="20080"
  />
</svg>