<?xml version="1.0" standalone="no"?><!DOCTYPE svg PUBLIC "-//W3C//DTD SVG 1.1//EN" "http://www.w3.org/Graphics/SVG/1.1/DTD/svg11.dtd"><svg t="1702322421667" class="icon" viewBox="0 0 1024 1024" version="1.1" xmlns="http://www.w3.org/2000/svg" p-id="15101" xmlns:xlink="http://www.w3.org/1999/xlink" width="18" height="18"><path d="M29.348409 0m28.444444 0l881.777778 0q28.444444 0 28.444445 28.444444l0 967.111112q0 28.444444-28.444445 28.444444l-881.777778 0q-28.444444 0-28.444444-28.444444l0-967.111112q0-28.444444 28.444444-28.444444Z" fill="#1890FF" p-id="15102"></path><path d="M504.086187 881.777778c75.178667 0 133.404444-21.987556 174.592-65.934222C719.865742 771.896889 740.45952 716.657778 740.45952 650.154667c0-64.853333-17.607111-114.432-52.792889-148.679111-22.670222-22.044444-56.263111-39.68-100.807111-52.849778l-101.575111-30.122667c-39.196444-11.52-64.796444-21.560889-76.8-30.122667-18.659556-12.828444-27.989333-32.256-27.989333-58.282666 0-28.302222 9.472-50.346667 28.387555-66.190222 18.944-15.786667 44.259556-23.694222 76.003556-23.694223 28.529778 0 52.394667 6.087111 71.594666 18.261334 28.785778 18.460444 44.259556 49.578667 46.364445 93.354666h118.414222c-2.133333-77.368889-25.116444-136.391111-68.977778-177.066666C608.391964 134.087111 555.399964 113.777778 493.277298 113.777778c-74.382222 0-130.787556 21.560889-169.187556 64.711111-38.4 43.121778-57.6 97.28-57.6 162.474667 0 71.452444 19.882667 123.960889 59.619556 157.553777 23.466667 20.081778 65.848889 38.684444 127.175111 55.808l62.407111 17.294223c36.522667 9.870222 63.317333 21.219556 80.384 34.076444 17.066667 13.169778 25.6 31.772444 25.6 55.808 0 41.159111-17.208889 69.319111-51.598222 84.48-18.147556 7.879111-41.728 11.832889-70.798222 11.832889-48.526222 0-82.773333-14.990222-102.798223-44.942222-10.922667-16.469333-18.261333-41.329778-21.987555-74.581334H256.903964c0 75.719111 21.987556 135.253333 65.991112 178.545778C366.898631 860.131556 427.286187 881.777778 504.086187 881.777778z" fill="#FFFFFF" p-id="15103"></path></svg>