<?xml version="1.0" standalone="no"?><!DOCTYPE svg PUBLIC "-//W3C//DTD SVG 1.1//EN" "http://www.w3.org/Graphics/SVG/1.1/DTD/svg11.dtd"><svg t="1702322404470" class="icon" viewBox="0 0 1024 1024" version="1.1" xmlns="http://www.w3.org/2000/svg" p-id="14097" xmlns:xlink="http://www.w3.org/1999/xlink" width="18" height="18"><path d="M178.73 448.279v226.234c0 175.69-9.325 154.472 187.853 264.615l145.958 84.467V915.478L282.793 784.386c-17.164-11.487-13.515-7.973-13.515-55.004L511.054 866.69l1.081-331.242L269.82 676.675l0.81-179.744c81.088-44.057 160.013-91.493 240.966-135.146V257.047z" fill="#33E7D8" p-id="14098"></path><path d="M511.595 361.38l244.208 140.552v43.787L511.865 409.222v77.708l242.992 138.525v148.66L511.595 915.883V1024l216.233-124.334c130.55-71.222 116.36-67.573 116.36-224.748V445.17L511.46 257.047z m0.27-149.877L845.27 400.707V190.42l-95.278-51.49v99.062l-142.85-79.33V51.625L512.136 0l-0.27 211.503z" fill="#246ADF" p-id="14099"></path><path d="M178.46 402.33l333.405-190.827L512.135 0l-95.548 55.545V158.66l-138.93 79.33V138.93l-99.197 51.49v211.91z" fill="#33E7D8" p-id="14100"></path><path d="M511.19 866.69l-0.136 1.352 202.584-113.523-0.406-102.846-201.097-116.225-0.946 331.242z" fill="#246ADF" p-id="14101"></path><path d="M178.46 402.33l23.245 32.704L511.46 257.047l310.7 174.339 23.11-30.679-333.404-189.204L178.46 402.33z m333.675 133.118l201.097 116.225 0.406 102.846-202.584 113.523 0.676 47.436L754.992 773.71V625.725L511.595 487.201l0.54 48.247z" p-id="14102"></path><path d="M512.135 535.448l-0.676-48.247-200.42 114.468c2.026-97.71-11.894-71.222 51.49-108.116l148.66-84.061V361.38c-81.087 44.058-159.337 91.494-240.965 135.146l-0.81 179.744z" fill="#FFFFFF" p-id="14103"></path><path d="M511.46 487.2v-77.708l-148.661 84.06c-63.383 36.895-49.463 10.407-51.49 108.117z" fill="#33E7D8" p-id="14104"></path><path d="M511.73 915.478l-0.676-46.76-241.37-139.336c0 47.03-4.055 43.517 13.514 55.004z" fill="#FFFFFF" p-id="14105"></path><path d="M511.865 409.627l244.073 136.092v-43.787L511.595 361.38l0.27 48.247z" p-id="14106"></path></svg>