<?xml version="1.0" standalone="no"?><!DOCTYPE svg PUBLIC "-//W3C//DTD SVG 1.1//EN" "http://www.w3.org/Graphics/SVG/1.1/DTD/svg11.dtd"><svg t="1702322327744" class="icon" viewBox="0 0 1549 1024" version="1.1" xmlns="http://www.w3.org/2000/svg" p-id="11985" xmlns:xlink="http://www.w3.org/1999/xlink" width="27.228515625" height="18"><path d="M1321.639264 386.917165c-14.461822-96.983007-44.40033-206.398107-84.931489-327.54758A480.72872 480.72872 0 0 1 1181.017075 158.572609 522.465031 522.465031 0 0 0 357.898378 254.350464a346.13229 346.13229 0 0 1 213.565589 89.752097 360.974686 360.974686 0 0 0-201.767787-59.496443 369.664465 369.664465 0 0 0 0 739.39236h852.486344A326.152141 326.152141 0 0 0 1321.639264 386.917165zM525.160765 910.016487a44.40033 44.40033 0 1 1-6.342904-62.858182 44.40033 44.40033 0 0 1 6.342904 62.858182z m709.326993-156.54288c-129.014674 171.829279-404.423581 114.172278-581.073467 122.164338 0 0-31.270518 1.776013-62.794753 6.977195 0 0 11.92466-5.074323 27.147631-10.338934 124.00378-42.878033 182.675645-51.504383 258.092778-90.259529 141.573625-72.562826 282.576389-230.564573 311.182887-394.718938-53.914687 157.938318-217.878764 293.803329-367.127304 348.859739C717.667912 773.83433 532.83568 810.623175 532.83568 810.686605l-7.484627-3.99603C399.634688 745.544977 396.146091 473.370951 624.363789 385.648584c100.091031-38.501429 195.805457-17.316129 303.951977-43.131749 115.37743-27.401347 248.958996-114.172278 303.254256-227.012547 60.955311 180.645916 134.088998 463.222304 2.917736 637.969319z" fill="#77BC1F" p-id="11986"></path></svg>